<?xml version="1.0" standalone="no"?><!DOCTYPE svg PUBLIC "-//W3C//DTD SVG 1.1//EN" "http://www.w3.org/Graphics/SVG/1.1/DTD/svg11.dtd"><svg t="1568708837496" class="icon" viewBox="0 0 1024 1024" version="1.1" xmlns="http://www.w3.org/2000/svg" p-id="1616" xmlns:xlink="http://www.w3.org/1999/xlink" width="200" height="200"><defs><style type="text/css"></style></defs><path d="M687.588 373.724L512 490.786l-175.586-117.062-19.586 29.378 185.38 123.588h19.586l185.38-123.588z" fill="#AA4141" p-id="1617"></path><path d="M512 1024a17.652 17.652 0 0 1-17.656-17.656V17.656A17.652 17.652 0 0 1 512 0a17.652 17.652 0 0 1 17.656 17.656v988.69A17.652 17.652 0 0 1 512 1024z" fill="#803030" p-id="1618"></path><path d="M1006.344 423.724H17.656L512 52.966z" fill="#FF4B4B" p-id="1619"></path><path d="M17.656 423.724h300.138L512 52.966z" fill="#C83741" p-id="1620"></path><path d="M1010.69 387.474L522.26 38.594a17.668 17.668 0 0 0-20.518 0L13.292 387.492A31.844 31.844 0 0 0 0 413.336v28.044c0 9.75 7.896 17.656 17.656 17.656s17.656-7.906 17.656-17.656v-26.224L318.48 212.892 134.552 388.06a35.472 35.472 0 0 0-10.966 25.578v27.74c0 9.75 7.896 17.656 17.656 17.656s17.656-7.906 17.656-17.656v-27.74L441.524 144.466l-132.66 241.18a70.948 70.948 0 0 0-8.724 34.026v21.708c0 9.75 7.896 17.656 17.656 17.656s17.656-7.906 17.656-17.656v-21.708c0-5.932 1.518-11.818 4.364-17.018L494.348 121.7v320.412c0 9.344 7.896 16.92 17.656 16.92 9.758 0 17.656-7.576 17.656-16.92V121.704l154.518 280.942a35.444 35.444 0 0 1 4.378 17.026v21.708a17.652 17.652 0 0 0 17.656 17.656 17.652 17.652 0 0 0 17.656-17.656v-21.708c0-11.854-3.016-23.62-8.742-34.034L582.468 144.46l282.636 269.18v27.74a17.652 17.652 0 0 0 17.656 17.656 17.652 17.652 0 0 0 17.656-17.656v-27.74a35.44 35.44 0 0 0-10.966-25.57L705.5 212.88l283.188 202.276v26.224a17.652 17.652 0 0 0 17.656 17.656A17.652 17.652 0 0 0 1024 441.38v-28.044c0-10.224-4.966-19.888-13.31-25.862z" fill="#963737" p-id="1621"></path></svg>